HIERARCHY
ROOT Hips
{
  OFFSET 45.6498 86.6218 9.3172
  CHANNELS 6 Xposition Yposition Zposition Zrotation Xrotation Yrotation
  JOINT spine
  {
    OFFSET 0 6.84637 0.3937
    CHANNELS 3 Zrotation Xrotation Yrotation
    JOINT spine1
    {
      OFFSET 0 9.49621 0
      CHANNELS 3 Zrotation Xrotation Yrotation
      JOINT spine2
      {
        OFFSET 0 9.09909 0
        CHANNELS 3 Zrotation Xrotation Yrotation
        JOINT Neck
        {
          OFFSET 0 23.3612 1.11378
          CHANNELS 3 Zrotation Xrotation Yrotation
          JOINT Head
          {
            OFFSET 0 7.05802 0
            CHANNELS 3 Zrotation Xrotation Yrotation
            End Site
            {
              OFFSET 0 17.0844 -5.63419
            }
          }
        }
        JOINT RightShoulder
        {
          OFFSET -3.83136 9.82631 -0.533491
          CHANNELS 3 Zrotation Xrotation Yrotation
          JOINT RightArm
          {
            OFFSET 0 12.8881 0
            CHANNELS 3 Zrotation Xrotation Yrotation
            JOINT RightArmRoll
            {
              OFFSET 0 6.50617 0
              CHANNELS 3 Zrotation Xrotation Yrotation
              JOINT RightForeArm
              {
                OFFSET 0 18.9501 0
                CHANNELS 3 Zrotation Xrotation Yrotation
                JOINT RightForeArmRoll
                {
                  OFFSET 0 7.30092 0
                  CHANNELS 3 Zrotation Xrotation Yrotation
                  JOINT RightHand
                  {
                    OFFSET 0 14.6514 0
                    CHANNELS 3 Zrotation Xrotation Yrotation
                    End Site
                    {
                      OFFSET 0 0 0
                    }
                  }
                }
              }
            }
          }
        }
        JOINT LeftShoulder
        {
          OFFSET 3.83136 9.82631 -0.533491
          CHANNELS 3 Zrotation Xrotation Yrotation
          JOINT LeftArm
          {
            OFFSET 0 12.8881 0
            CHANNELS 3 Zrotation Xrotation Yrotation
            JOINT LeftArmRoll
            {
              OFFSET 0 6.50617 0
              CHANNELS 3 Zrotation Xrotation Yrotation
              JOINT LeftForeArm
              {
                OFFSET 0 18.9501 0
                CHANNELS 3 Zrotation Xrotation Yrotation
                JOINT LeftForeArmRoll
                {
                  OFFSET 0 7.30093 0
                  CHANNELS 3 Zrotation Xrotation Yrotation
                  JOINT LeftHand
                  {
                    OFFSET 0 14.6514 0
                    CHANNELS 3 Zrotation Xrotation Yrotation
                    End Site
                    {
                      OFFSET 0 0 0
                    }
                  }
                }
              }
            }
          }
        }
      }
    }
  }
  JOINT RightUpLeg
  {
    OFFSET -6.06837 -1.11278 -0.933477
    CHANNELS 3 Zrotation Xrotation Yrotation
    JOINT RightUpLegRoll
    {
      OFFSET 0 17.1796 0
      CHANNELS 3 Zrotation Xrotation Yrotation
      JOINT RightLeg
      {
        OFFSET 0 -21.2743 0
        CHANNELS 3 Zrotation Xrotation Yrotation
        JOINT RightLegRoll
        {
          OFFSET 0 21.3439 0
          CHANNELS 3 Zrotation Xrotation Yrotation
          JOINT RightFoot
          {
            OFFSET 0 17.7652 0
            CHANNELS 3 Zrotation Xrotation Yrotation
            JOINT RightToeBase
            {
              OFFSET 0 14.8508 0
              CHANNELS 3 Zrotation Xrotation Yrotation
              End Site
              {
                OFFSET 0.0062947 7.19213 -0.829005
              }
            }
          }
        }
      }
    }
  }
  JOINT LeftUpLeg
  {
    OFFSET 6.06837 -1.11278 -0.933477
    CHANNELS 3 Zrotation Xrotation Yrotation
    JOINT LeftUpLegRoll
    {
      OFFSET 0 17.1797 0
      CHANNELS 3 Zrotation Xrotation Yrotation
      JOINT LeftLeg
      {
        OFFSET 0 21.2742 0
        CHANNELS 3 Zrotation Xrotation Yrotation
        JOINT LeftLegRoll
        {
          OFFSET 0 21.5412 0
          CHANNELS 3 Zrotation Xrotation Yrotation
          JOINT LeftFoot
          {
            OFFSET 0 17.5679 0
            CHANNELS 3 Zrotation Xrotation Yrotation
            JOINT LeftToeBase
            {
              OFFSET 0 14.8508 0
              CHANNELS 3 Zrotation Xrotation Yrotation
              End Site
              {
                OFFSET -0.0282102 7.19213 -0.829005
              }
            }
          }
        }
      }
    }
  }
}
MOTION
Frames: 6
Frame Time: 0.00208333
47.9069 86.6335 6.95393 -2.43791 3.99552 34.1011 1.87288 -1.56204 1.24206 3.76503 0.90467 2.29144 3.73984 2.54716 2.22947 -13.2369 -3.07464 10.4285 5.73367 11.7885 8.31657 43.274 -3.39712 -0.632004 163.191 46.4551 -80.1556 7.57773e-006 7.84003e-006 -6.90491e-006 17.9977 54.8261 -6.94813 -7.31883e-006 5.94492e-006 -3.00002 8.02897 -4.95084 0.697371 -68.1797 -8.43795 5.42444 -85.0808 42.1345 30.6795 7.77355e-006 -4.24737e-008 3.92739e-006 -40.5109 31.2174 5.95549 -5.49876e-007 -4.52819e-006 3.00001 -8.03083 -4.95129 -0.697224 176.571 18.5693 1.05105 180 7.01549e-015 178.932 173.471 23.5274 -178.821 -1.02381e-006 2.82354e-007 0.295654 -26.1165 72.6898 24.8898 8.13648 25.2327 -3.48773 176.31 18.2266 2.23271 4.54188e-006 -4.6773e-006 -1.5782 -5.6628 -23.1228 -1.31395 -4.24662e-006 -8.75679e-006 -0.809195 37.6223 75.5033 -31.6094 -8.13651 25.2327 3.48774 
47.9004 86.6328 6.96595 -2.43853 3.9881 34.0998 1.87562 -1.56742 1.24325 3.77062 0.894691 2.29368 3.74539 2.53717 2.23162 -13.1244 -3.02522 10.4309 5.61389 11.7933 8.3339 43.3942 -3.47946 -0.710556 162.739 46.54 -79.7352 7.57773e-006 7.84003e-006 -6.90491e-006 17.7141 55.0403 -6.84681 -7.31883e-006 5.94492e-006 -3.00002 8.02897 -4.95084 0.697371 -68.1068 -8.42463 5.41587 -85.144 41.9458 30.8287 7.77355e-006 -4.24737e-008 3.92739e-006 -40.3813 31.5395 6.04281 -5.49876e-007 -4.52819e-006 3.00001 -8.03083 -4.95129 -0.697224 176.571 18.5664 1.04552 180 7.01549e-015 178.933 173.48 23.5474 -178.824 -1.02381e-006 2.82354e-007 0.295665 -26.1218 72.7057 24.9105 8.13648 25.2327 -3.48773 176.309 18.2149 2.22774 4.54188e-006 -4.6773e-006 -1.57904 -5.66716 -23.1259 -1.31562 -4.24662e-006 -8.75679e-006 -0.809215 37.6243 75.4981 -31.5997 -8.13651 25.2327 3.48774 
47.9247 86.6243 6.96862 -2.43901 3.98044 34.0988 1.87832 -1.57268 1.24448 3.77612 0.884952 2.296 3.75086 2.52742 2.23384 -13.0125 -2.9767 10.4331 5.49434 11.7977 8.35082 43.5144 -3.56187 -0.789397 162.284 46.6193 -79.314 7.57773e-006 7.84003e-006 -6.90491e-006 17.4281 55.256 -6.74439 -7.31883e-006 5.94492e-006 -3.00002 8.02897 -4.95084 0.697371 -68.0346 -8.41168 5.40755 -85.204 41.7581 30.9804 7.77355e-006 -4.24737e-008 3.92739e-006 -40.2536 31.8648 6.13255 -5.49876e-007 -4.52819e-006 3.00001 -8.03083 -4.95129 -0.697224 176.571 18.5632 1.03985 180 7.01549e-015 178.934 173.488 23.5673 -178.827 -1.02381e-006 2.82354e-007 0.295683 -26.1273 72.7216 24.9313 8.13648 25.2327 -3.48773 176.307 18.2027 2.22277 4.54188e-006 -4.6773e-006 -1.57992 -5.67144 -23.1291 -1.31727 -4.24662e-006 -8.75679e-006 -0.809245 37.626 75.493 -31.5898 -8.13651 25.2327 3.48774 
47.962 86.6217 6.93652 -2.43938 3.97259 34.0978 1.88099 -1.57787 1.24574 3.78155 0.875382 2.29837 3.75626 2.51785 2.23611 -12.9011 -2.92882 10.4351 5.37495 11.8019 8.36745 43.6345 -3.64432 -0.868445 161.828 46.6938 -78.8915 7.57773e-006 7.84003e-006 -6.90491e-006 17.1402 55.4726 -6.64087 -7.31883e-006 5.94492e-006 -3.00002 8.02897 -4.95084 0.697371 -67.963 -8.39898 5.3994 -85.2613 41.5711 31.1338 7.77355e-006 -4.24737e-008 3.92739e-006 -40.1278 32.1924 6.22425 -5.49876e-007 -4.52819e-006 3.00001 -8.03083 -4.95129 -0.697224 176.571 18.5598 1.0341 180 7.0155e-015 178.935 173.497 23.5873 -178.83 -1.02381e-006 2.82354e-007 0.295705 -26.133 72.7376 24.9523 8.13648 25.2327 -3.48773 176.306 18.1904 2.21779 4.54188e-006 -4.6773e-006 -1.58083 -5.67565 -23.1323 -1.31892 -4.24662e-006 -8.75679e-006 -0.809282 37.6276 75.4878 -31.5799 -8.13651 25.2327 3.48774 
47.9637 86.6456 6.9371 -2.4397 3.96465 34.0969 1.88364 -1.58302 1.24701 3.78695 0.865908 2.30077 3.76162 2.50836 2.23842 -12.7901 -2.8813 10.437 5.25564 11.806 8.38391 43.7545 -3.72679 -0.947618 161.371 46.7643 -78.4672 7.57773e-006 7.84003e-006 -6.90491e-006 16.8504 55.6898 -6.53626 -7.31883e-006 5.94492e-006 -3.00002 8.02897 -4.95084 0.697371 -67.8917 -8.38643 5.39135 -85.3166 41.3847 31.2878 7.77355e-006 -4.24737e-008 3.92739e-006 -40.0035 32.5212 6.31748 -5.49876e-007 -4.52819e-006 3.00001 -8.03083 -4.95129 -0.697224 176.572 18.5562 1.02828 180 7.0155e-015 178.936 173.505 23.6073 -178.833 -1.02381e-006 2.82354e-007 0.295728 -26.1387 72.7536 24.9734 8.13648 25.2327 -3.48773 176.305 18.1779 2.21282 4.54188e-006 -4.6773e-006 -1.58174 -5.67982 -23.1355 -1.32057 -4.24662e-006 -8.75679e-006 -0.809323 37.629 75.4826 -31.5699 -8.13651 25.2327 3.48774 
47.9779 86.6406 6.95212 -2.44 3.95669 34.0961 1.88629 -1.58816 1.24829 3.79235 0.856458 2.30318 3.76698 2.49891 2.24073 -12.6791 -2.83387 10.4388 5.13635 11.81 8.40034 43.8743 -3.80926 -1.02683 160.911 46.8317 -78.0409 7.57773e-006 7.84003e-006 -6.90491e-006 16.5591 55.9071 -6.43056 -7.31883e-006 5.94492e-006 -3.00002 8.02897 -4.95084 0.697371 -67.8205 -8.37391 5.38332 -85.3706 41.1984 31.4415 7.77355e-006 -4.24737e-008 3.92739e-006 -39.8806 32.8503 6.41177 -5.49876e-007 -4.52819e-006 3.00001 -8.03083 -4.95129 -0.697224 176.572 18.5526 1.02246 180 7.0155e-015 178.936 173.514 23.6272 -178.836 -1.02381e-006 2.82354e-007 0.295753 -26.1446 72.7696 24.9945 8.13648 25.2327 -3.48773 176.304 18.1654 2.20785 4.54188e-006 -4.6773e-006 -1.58266 -5.68398 -23.1387 -1.32221 -4.24662e-006 -8.75679e-006 -0.809364 37.6305 75.4774 -31.56 -8.13651 25.2327 3.48774 
